<svg xmlns="http://www.w3.org/2000/svg" fill="none" viewBox="0 0 128 128">
  <path fill="#0066CC" d="M50.4 78.5a75.1 75.1 0 0 0-28.5 6.9l24.2-65.7c.7-2 3.1-3.1 5.1-2.3l46.3 17.5c2 .8 3.1 3 2.3 5.1L89.2 64.8c2.2-1.2 4.6-2.2 7.1-3L108 27.4c1.6-4.3-.8-9.1-5.1-10.7L56.5 0c-4.3-1.6-9.1.8-10.7 5.1L21.2 74.3c-1.6 4.3.8 9.1 5.1 10.7l21.7 8.2c.9-5 2-9.8 3.4-14.3l-1-0.4Z"/>
  <path fill="#0066CC" d="M104.3 53.9c-2.2.8-4.2 1.8-6.2 2.9l-29.3 15.2c-1.8.9-2.9 2.7-2.9 4.6v45.9c0 1.9 1.1 3.7 2.9 4.6 1.8.9 3.9.9 5.7 0l29.3-15.2c1.8-.9 2.9-2.7 2.9-4.6v-46c0-1.9-1.1-3.7-2.9-4.6-.2-.1-.4-.2-.6-.3.3-.2.7-.3 1-.5Z"/>
</svg>